<?xml version="1.0" encoding="UTF-8"?>
<!--
  Lumos tree mark: symmetric tree-of-life silhouette (core symbol).
  Quiet presentation: transparent canvas, no circular backplate; soft cyan read, antique gold strokes.
-->
<svg xmlns="http://www.w3.org/2000/svg" viewBox="0 0 64 64" role="img" aria-labelledby="lumos-tree-logo-title">
  <title id="lumos-tree-logo-title">Lumos</title>
  <defs>
    <linearGradient id="lumos-tree-gold" x1="22" y1="9" x2="42" y2="52" gradientUnits="userSpaceOnUse">
      <stop offset="0%" stop-color="#f2ead8"/>
      <stop offset="45%" stop-color="#c9a86e"/>
      <stop offset="100%" stop-color="#7a5a28"/>
    </linearGradient>
    <radialGradient id="lumos-tree-soft" cx="32" cy="30" r="22" gradientUnits="userSpaceOnUse">
      <stop offset="0%" stop-color="#6ec8ff" stop-opacity="0.11"/>
      <stop offset="55%" stop-color="#56ceff" stop-opacity="0.045"/>
      <stop offset="100%" stop-color="#56ceff" stop-opacity="0"/>
    </radialGradient>
  </defs>

  <rect width="64" height="64" fill="none"/>
  <circle cx="32" cy="30" r="22" fill="url(#lumos-tree-soft)"/>

  <g
    fill="none"
    stroke="url(#lumos-tree-gold)"
    stroke-width="1.35"
    stroke-linecap="round"
    stroke-linejoin="round"
    opacity="0.97"
  >
    <path d="M 30.2 47 Q 30.8 38 31.2 30.5"/>
    <path d="M 33.8 47 Q 33.2 38 32.8 30.5"/>

    <path d="M 31.5 30 Q 24 22 17 14"/>
    <path d="M 31.8 28 Q 26 16 20 10"/>
    <path d="M 32 26 Q 28 12 24 8"/>
    <path d="M 31.2 31 Q 22 26 12 20"/>

    <path d="M 32.5 30 Q 40 22 47 14"/>
    <path d="M 32.2 28 Q 38 16 44 10"/>
    <path d="M 32 26 Q 36 12 40 8"/>
    <path d="M 32.8 31 Q 42 26 52 20"/>

    <path d="M 32 24 Q 28 12 25 8"/>
    <path d="M 32 24 Q 36 12 39 8"/>

    <path d="M 31 45 Q 25 51 19 55"/>
    <path d="M 33 45 Q 39 51 45 55"/>
    <path d="M 31.5 46 Q 28 51 26 54"/>
    <path d="M 32.5 46 Q 36 51 38 54"/>
  </g>
</svg>
